{
 "accessors": [
  {
   "componentType": 5126,
   "type": "VEC3",
   "count": 4,
   "max": [
    500,
    0,
    500
   ],
   "min": [
    -500,
    0,
    -500
   ],
   "bufferView": 0
  },
  {
   "componentType": 5126,
   "type": "VEC3",
   "count": 4,
   "bufferView": 1
  },
  {
   "componentType": 5126,
   "type": "VEC2",
   "count": 4,
   "bufferView": 2
  },
  {
   "componentType": 5121,
   "type": "SCALAR",
   "count": 6,
   "bufferView": 3
  },
  {
   "componentType": 5126,
   "type": "VEC3",
   "count": 24910,
   "max": [
    85.92350769042969,
    30.839622497558594,
    315.0602111816406
   ],
   "min": [
    -85.9234848022461,
    -131.95314025878906,
    -74.82389831542969
   ],
   "bufferView": 4
  },
  {
   "componentType": 5126,
   "type": "VEC3",
   "count": 24910,
   "bufferView": 5
  },
  {
   "componentType": 5126,
   "type": "VEC2",
   "count": 24910,
   "bufferView": 6
  },
  {
   "componentType": 5123,
   "type": "SCALAR",
   "count": 37332,
   "bufferView": 7
  }
 ],
 "asset": {
  "version": "2.0",
  "generator": "clara.io"
 },
 "bufferViews": [
  {
   "buffer": 0,
   "byteOffset": 0,
   "byteLength": 48,
   "target": 34962,
   "byteStride": 12
  },
  {
   "buffer": 0,
   "byteOffset": 48,
   "byteLength": 48,
   "target": 34962,
   "byteStride": 12
  },
  {
   "buffer": 0,
   "byteOffset": 96,
   "byteLength": 32,
   "target": 34962,
   "byteStride": 8
  },
  {
   "buffer": 0,
   "byteOffset": 128,
   "byteLength": 6,
   "target": 34963
  },
  {
   "buffer": 0,
   "byteOffset": 136,
   "byteLength": 298920,
   "target": 34962,
   "byteStride": 12
  },
  {
   "buffer": 0,
   "byteOffset": 299056,
   "byteLength": 298920,
   "target": 34962,
   "byteStride": 12
  },
  {
   "buffer": 0,
   "byteOffset": 597976,
   "byteLength": 199280,
   "target": 34962,
   "byteStride": 8
  },
  {
   "buffer": 0,
   "byteOffset": 797256,
   "byteLength": 74664,
   "target": 34963
  }
 ],
 "buffers": [
  {
   "byteLength": 871920,
   "uri": "data:application/octet-stream;base64,"
  }
 ],
 "materials": [
  {
   "name": "Default-Plane",
   "pbrMetallicRoughness": {
    "baseColorFactor": [
     0.54,
     0.54,
     0.54,
     1
    ]
   }
  },
  {
   "name": "Silver",
   "pbrMetallicRoughness": {
    "baseColorFactor": [
     0.6784313725490196,
     0.6784313725490196,
     0.6705882352941176,
     1
    ],
    "roughnessFactor": 0.0891,
    "metallicFactor": 0
   }
  }
 ],
 "meshes": [
  {
   "primitives": [
    {
     "indices": 3,
     "material": 0,
     "mode": 4,
     "attributes": {
      "POSITION": 0,
      "NORMAL": 1,
      "TEXCOORD_0": 2
     }
    }
   ]
  },
  {
   "primitives": [
    {
     "indices": 7,
     "material": 1,
     "mode": 4,
     "attributes": {
      "POSITION": 4,
      "NORMAL": 5,
      "TEXCOORD_0": 6
     }
    }
   ]
  }
 ],
 "nodes": [
  {
   "name": "Plane",
   "translation": [
    -17.339599609375,
    18.23740005493164,
    -79.71499633789062
   ],
   "mesh": 0
  },
  {
   "name": "LightPreset",
   "translation": [
    -7.553657531738281,
    211.4466552734375,
    -2.2657384872436523
   ]
  },
  {
   "name": "teifel",
   "translation": [
    43.00310134887695,
    91.32849884033203,
    -2.265749931335449
   ],
   "rotation": [
    0.5000000000000001,
    0.49999999999999994,
    0.5,
    -0.5
   ],
   "mesh": 1
  }
 ],
 "scene": 0,
 "scenes": [
  {
   "nodes": [
    0,
    1,
    2
   ]
  }
 ]
}